<svg width="48" height="48" viewBox="0 0 48 48" fill="none" xmlns="http://www.w3.org/2000/svg">
<circle cx="24" cy="24" r="24" fill="#CA58FF"/>
<path d="M35.3705 33.7386L9 28.6661C11.5895 21.0843 18.2227 16.2125 24.831 17.4836C27.4836 17.9938 29.7686 19.4256 31.5318 21.4802C34.1584 24.5283 35.6187 28.9542 35.3705 33.7386Z" fill="black"/>
<path d="M25.5499 17.5524C27.6395 17.5524 29.3335 15.8618 29.3335 13.7762C29.3335 11.6907 27.6395 10 25.5499 10C23.4603 10 21.7664 11.6907 21.7664 13.7762C21.7664 15.8618 23.4603 17.5524 25.5499 17.5524Z" fill="black"/>
<path d="M30.2604 28.0627C29.4942 32.0308 25.6446 34.6313 21.6688 33.8666C19.1167 33.3758 17.1342 31.6227 16.2419 29.3799C15.7387 28.1227 15.5784 26.7165 15.8536 25.2917C15.9352 24.8689 16.0513 24.4641 16.2015 24.0774C17.4384 20.8084 20.8892 18.8038 24.4451 19.4878C25.8727 19.7624 27.1214 20.4334 28.1037 21.3669C29.5666 22.7517 30.4329 24.7173 30.3929 26.8072C30.3849 27.2212 30.342 27.6399 30.2604 28.0627Z" fill="#D29D72"/>
<path d="M30.3929 26.8072L16.2015 24.0774C17.4384 20.8084 20.8892 18.8038 24.4451 19.4878C25.8727 19.7624 27.1214 20.4334 28.1037 21.3669C29.567 22.7517 30.4333 24.7173 30.3929 26.8072Z" fill="black"/>
<path d="M24.3563 28.7043C24.2061 30.5548 22.5758 31.9384 20.7217 31.7885C18.8667 31.6386 17.4809 30.0115 17.6311 28.1605L24.3563 28.7043Z" fill="white"/>
</svg>
